<?xml version="1.0" encoding="UTF-8" standalone="no"?>
<!DOCTYPE svg PUBLIC "-//W3C//DTD SVG 1.1//EN"
 "http://www.w3.org/Graphics/SVG/1.1/DTD/svg11.dtd">
<!-- Generated by graphviz version 10.0.1 (20240210.2158)
 -->
<!-- Title: AVL_Branches Pages: 1 -->
<svg width="494pt" height="260pt"
 viewBox="0.00 0.00 494.11 260.00" xmlns="http://www.w3.org/2000/svg" xmlns:xlink="http://www.w3.org/1999/xlink">
<g id="graph0" class="graph" transform="scale(1 1) rotate(0) translate(4 256)">
<title>AVL_Branches</title>
<polygon fill="white" stroke="none" points="-4,4 -4,-256 490.11,-256 490.11,4 -4,4"/>
<!-- 1 -->
<g id="node1" class="node">
<title>1</title>
<ellipse fill="none" stroke="black" cx="189" cy="-234" rx="27" ry="18"/>
<text text-anchor="middle" x="189" y="-228.57" font-family="Times New Roman,serif" font-size="14.00"> &#160;&#160;&#160;7</text>
</g>
<!-- 9 -->
<g id="node2" class="node">
<title>9</title>
<ellipse fill="none" stroke="black" cx="153" cy="-162" rx="27" ry="18"/>
<text text-anchor="middle" x="153" y="-156.57" font-family="Times New Roman,serif" font-size="14.00"> &#160;&#160;&#160;3</text>
</g>
<!-- 1&#45;&#45;9 -->
<g id="edge1" class="edge">
<title>1&#45;&#45;9</title>
<path fill="none" stroke="black" d="M180.65,-216.76C174.83,-205.46 167.11,-190.44 161.3,-179.15"/>
</g>
<!-- 7 -->
<g id="node3" class="node">
<title>7</title>
<ellipse fill="none" stroke="black" cx="261" cy="-162" rx="27.11" ry="18"/>
<text text-anchor="middle" x="261" y="-156.57" font-family="Times New Roman,serif" font-size="14.00"> &#160;&#160;11</text>
</g>
<!-- 1&#45;&#45;7 -->
<g id="edge2" class="edge">
<title>1&#45;&#45;7</title>
<path fill="none" stroke="black" d="M203.92,-218.5C216.28,-206.48 233.75,-189.49 246.1,-177.49"/>
</g>
<!-- 3 -->
<g id="node4" class="node">
<title>3</title>
<ellipse fill="none" stroke="black" cx="45" cy="-90" rx="27" ry="18"/>
<text text-anchor="middle" x="45" y="-84.58" font-family="Times New Roman,serif" font-size="14.00"> &#160;&#160;&#160;1</text>
</g>
<!-- 9&#45;&#45;3 -->
<g id="edge3" class="edge">
<title>9&#45;&#45;3</title>
<path fill="none" stroke="black" d="M134.19,-148.81C114.49,-136.04 83.72,-116.09 63.96,-103.29"/>
</g>
<!-- 4 -->
<g id="node5" class="node">
<title>4</title>
<ellipse fill="none" stroke="black" cx="153" cy="-90" rx="27" ry="18"/>
<text text-anchor="middle" x="153" y="-84.58" font-family="Times New Roman,serif" font-size="14.00"> &#160;&#160;&#160;5</text>
</g>
<!-- 9&#45;&#45;4 -->
<g id="edge4" class="edge">
<title>9&#45;&#45;4</title>
<path fill="none" stroke="black" d="M153,-143.7C153,-132.85 153,-118.92 153,-108.1"/>
</g>
<!-- 6 -->
<g id="node9" class="node">
<title>6</title>
<ellipse fill="none" stroke="black" cx="261" cy="-90" rx="27" ry="18"/>
<text text-anchor="middle" x="261" y="-84.58" font-family="Times New Roman,serif" font-size="14.00"> &#160;&#160;&#160;9</text>
</g>
<!-- 7&#45;&#45;6 -->
<g id="edge8" class="edge">
<title>7&#45;&#45;6</title>
<path fill="none" stroke="black" d="M261,-143.7C261,-132.85 261,-118.92 261,-108.1"/>
</g>
<!-- 13 -->
<g id="node10" class="node">
<title>13</title>
<ellipse fill="none" stroke="black" cx="387" cy="-90" rx="27.11" ry="18"/>
<text text-anchor="middle" x="387" y="-84.58" font-family="Times New Roman,serif" font-size="14.00"> &#160;&#160;13</text>
</g>
<!-- 7&#45;&#45;13 -->
<g id="edge9" class="edge">
<title>7&#45;&#45;13</title>
<path fill="none" stroke="black" d="M281.24,-149.75C304.76,-136.69 343.31,-115.27 366.81,-102.22"/>
</g>
<!-- 12 -->
<g id="node6" class="node">
<title>12</title>
<ellipse fill="none" stroke="black" cx="27" cy="-18" rx="27" ry="18"/>
<text text-anchor="middle" x="27" y="-12.57" font-family="Times New Roman,serif" font-size="14.00"> &#160;&#160;&#160;2</text>
</g>
<!-- 3&#45;&#45;12 -->
<g id="edge5" class="edge">
<title>3&#45;&#45;12</title>
<path fill="none" stroke="black" d="M40.64,-72.05C37.81,-61.05 34.14,-46.76 31.32,-35.79"/>
</g>
<!-- 14 -->
<g id="node7" class="node">
<title>14</title>
<ellipse fill="none" stroke="black" cx="99" cy="-18" rx="27" ry="18"/>
<text text-anchor="middle" x="99" y="-12.57" font-family="Times New Roman,serif" font-size="14.00"> &#160;&#160;&#160;4</text>
</g>
<!-- 4&#45;&#45;14 -->
<g id="edge6" class="edge">
<title>4&#45;&#45;14</title>
<path fill="none" stroke="black" d="M141.02,-73.46C132.07,-61.86 119.89,-46.08 110.95,-34.49"/>
</g>
<!-- 10 -->
<g id="node8" class="node">
<title>10</title>
<ellipse fill="none" stroke="black" cx="171" cy="-18" rx="27" ry="18"/>
<text text-anchor="middle" x="171" y="-12.57" font-family="Times New Roman,serif" font-size="14.00"> &#160;&#160;&#160;6</text>
</g>
<!-- 4&#45;&#45;10 -->
<g id="edge7" class="edge">
<title>4&#45;&#45;10</title>
<path fill="none" stroke="black" d="M157.36,-72.05C160.19,-61.05 163.86,-46.76 166.68,-35.79"/>
</g>
<!-- 8 -->
<g id="node11" class="node">
<title>8</title>
<ellipse fill="none" stroke="black" cx="243" cy="-18" rx="27" ry="18"/>
<text text-anchor="middle" x="243" y="-12.57" font-family="Times New Roman,serif" font-size="14.00"> &#160;&#160;&#160;8</text>
</g>
<!-- 6&#45;&#45;8 -->
<g id="edge10" class="edge">
<title>6&#45;&#45;8</title>
<path fill="none" stroke="black" d="M256.64,-72.05C253.81,-61.05 250.14,-46.76 247.32,-35.79"/>
</g>
<!-- 11 -->
<g id="node12" class="node">
<title>11</title>
<ellipse fill="none" stroke="black" cx="315" cy="-18" rx="27.11" ry="18"/>
<text text-anchor="middle" x="315" y="-12.57" font-family="Times New Roman,serif" font-size="14.00"> &#160;&#160;10</text>
</g>
<!-- 6&#45;&#45;11 -->
<g id="edge11" class="edge">
<title>6&#45;&#45;11</title>
<path fill="none" stroke="black" d="M272.98,-73.46C281.93,-61.86 294.11,-46.08 303.05,-34.49"/>
</g>
<!-- 5 -->
<g id="node13" class="node">
<title>5</title>
<ellipse fill="none" stroke="black" cx="387" cy="-18" rx="27.11" ry="18"/>
<text text-anchor="middle" x="387" y="-12.57" font-family="Times New Roman,serif" font-size="14.00"> &#160;&#160;12</text>
</g>
<!-- 13&#45;&#45;5 -->
<g id="edge12" class="edge">
<title>13&#45;&#45;5</title>
<path fill="none" stroke="black" d="M387,-71.7C387,-60.85 387,-46.92 387,-36.1"/>
</g>
<!-- 2 -->
<g id="node14" class="node">
<title>2</title>
<ellipse fill="none" stroke="black" cx="459" cy="-18" rx="27.11" ry="18"/>
<text text-anchor="middle" x="459" y="-12.57" font-family="Times New Roman,serif" font-size="14.00"> &#160;&#160;14</text>
</g>
<!-- 13&#45;&#45;2 -->
<g id="edge13" class="edge">
<title>13&#45;&#45;2</title>
<path fill="none" stroke="black" d="M401.92,-74.5C414.28,-62.48 431.75,-45.49 444.1,-33.49"/>
</g>
</g>
</svg>
