<?xml version="1.0" encoding="UTF-8" standalone="no"?>
<!DOCTYPE svg PUBLIC "-//W3C//DTD SVG 1.1//EN"
 "http://www.w3.org/Graphics/SVG/1.1/DTD/svg11.dtd">
<!-- Generated by graphviz version 10.0.1 (20240210.2158)
 -->
<!-- Title: AVL_Branches Pages: 1 -->
<svg width="566pt" height="260pt"
 viewBox="0.00 0.00 566.11 260.00" xmlns="http://www.w3.org/2000/svg" xmlns:xlink="http://www.w3.org/1999/xlink">
<g id="graph0" class="graph" transform="scale(1 1) rotate(0) translate(4 256)">
<title>AVL_Branches</title>
<polygon fill="white" stroke="none" points="-4,4 -4,-256 562.11,-256 562.11,4 -4,4"/>
<!-- 8 -->
<g id="node1" class="node">
<title>8</title>
<ellipse fill="none" stroke="black" cx="279" cy="-234" rx="27" ry="18"/>
<text text-anchor="middle" x="279" y="-228.57" font-family="Times New Roman,serif" font-size="14.00"> &#160;&#160;&#160;8</text>
</g>
<!-- 4 -->
<g id="node2" class="node">
<title>4</title>
<ellipse fill="none" stroke="black" cx="207" cy="-162" rx="27" ry="18"/>
<text text-anchor="middle" x="207" y="-156.57" font-family="Times New Roman,serif" font-size="14.00"> &#160;&#160;&#160;4</text>
</g>
<!-- 8&#45;&#45;4 -->
<g id="edge1" class="edge">
<title>8&#45;&#45;4</title>
<path fill="none" stroke="black" d="M264.08,-218.5C251.72,-206.48 234.25,-189.49 221.9,-177.49"/>
</g>
<!-- 12 -->
<g id="node3" class="node">
<title>12</title>
<ellipse fill="none" stroke="black" cx="351" cy="-162" rx="27.11" ry="18"/>
<text text-anchor="middle" x="351" y="-156.57" font-family="Times New Roman,serif" font-size="14.00"> &#160;&#160;12</text>
</g>
<!-- 8&#45;&#45;12 -->
<g id="edge2" class="edge">
<title>8&#45;&#45;12</title>
<path fill="none" stroke="black" d="M293.92,-218.5C306.28,-206.48 323.75,-189.49 336.1,-177.49"/>
</g>
<!-- 2 -->
<g id="node4" class="node">
<title>2</title>
<ellipse fill="none" stroke="black" cx="99" cy="-90" rx="27" ry="18"/>
<text text-anchor="middle" x="99" y="-84.58" font-family="Times New Roman,serif" font-size="14.00"> &#160;&#160;&#160;2</text>
</g>
<!-- 4&#45;&#45;2 -->
<g id="edge3" class="edge">
<title>4&#45;&#45;2</title>
<path fill="none" stroke="black" d="M188.19,-148.81C168.49,-136.04 137.72,-116.09 117.96,-103.29"/>
</g>
<!-- 6 -->
<g id="node5" class="node">
<title>6</title>
<ellipse fill="none" stroke="black" cx="207" cy="-90" rx="27" ry="18"/>
<text text-anchor="middle" x="207" y="-84.58" font-family="Times New Roman,serif" font-size="14.00"> &#160;&#160;&#160;6</text>
</g>
<!-- 4&#45;&#45;6 -->
<g id="edge4" class="edge">
<title>4&#45;&#45;6</title>
<path fill="none" stroke="black" d="M207,-143.7C207,-132.85 207,-118.92 207,-108.1"/>
</g>
<!-- 10 -->
<g id="node10" class="node">
<title>10</title>
<ellipse fill="none" stroke="black" cx="351" cy="-90" rx="27.11" ry="18"/>
<text text-anchor="middle" x="351" y="-84.58" font-family="Times New Roman,serif" font-size="14.00"> &#160;&#160;10</text>
</g>
<!-- 12&#45;&#45;10 -->
<g id="edge9" class="edge">
<title>12&#45;&#45;10</title>
<path fill="none" stroke="black" d="M351,-143.7C351,-132.85 351,-118.92 351,-108.1"/>
</g>
<!-- 14 -->
<g id="node11" class="node">
<title>14</title>
<ellipse fill="none" stroke="black" cx="459" cy="-90" rx="27.11" ry="18"/>
<text text-anchor="middle" x="459" y="-84.58" font-family="Times New Roman,serif" font-size="14.00"> &#160;&#160;14</text>
</g>
<!-- 12&#45;&#45;14 -->
<g id="edge10" class="edge">
<title>12&#45;&#45;14</title>
<path fill="none" stroke="black" d="M370.06,-148.65C389.8,-135.85 420.46,-115.98 440.13,-103.23"/>
</g>
<!-- 1 -->
<g id="node6" class="node">
<title>1</title>
<ellipse fill="none" stroke="black" cx="27" cy="-18" rx="27" ry="18"/>
<text text-anchor="middle" x="27" y="-12.57" font-family="Times New Roman,serif" font-size="14.00"> &#160;&#160;&#160;1</text>
</g>
<!-- 2&#45;&#45;1 -->
<g id="edge5" class="edge">
<title>2&#45;&#45;1</title>
<path fill="none" stroke="black" d="M84.08,-74.5C71.72,-62.48 54.25,-45.49 41.9,-33.49"/>
</g>
<!-- 3 -->
<g id="node7" class="node">
<title>3</title>
<ellipse fill="none" stroke="black" cx="99" cy="-18" rx="27" ry="18"/>
<text text-anchor="middle" x="99" y="-12.57" font-family="Times New Roman,serif" font-size="14.00"> &#160;&#160;&#160;3</text>
</g>
<!-- 2&#45;&#45;3 -->
<g id="edge6" class="edge">
<title>2&#45;&#45;3</title>
<path fill="none" stroke="black" d="M99,-71.7C99,-60.85 99,-46.92 99,-36.1"/>
</g>
<!-- 5 -->
<g id="node8" class="node">
<title>5</title>
<ellipse fill="none" stroke="black" cx="171" cy="-18" rx="27" ry="18"/>
<text text-anchor="middle" x="171" y="-12.57" font-family="Times New Roman,serif" font-size="14.00"> &#160;&#160;&#160;5</text>
</g>
<!-- 6&#45;&#45;5 -->
<g id="edge7" class="edge">
<title>6&#45;&#45;5</title>
<path fill="none" stroke="black" d="M198.65,-72.76C192.83,-61.46 185.11,-46.44 179.3,-35.15"/>
</g>
<!-- 7 -->
<g id="node9" class="node">
<title>7</title>
<ellipse fill="none" stroke="black" cx="243" cy="-18" rx="27" ry="18"/>
<text text-anchor="middle" x="243" y="-12.57" font-family="Times New Roman,serif" font-size="14.00"> &#160;&#160;&#160;7</text>
</g>
<!-- 6&#45;&#45;7 -->
<g id="edge8" class="edge">
<title>6&#45;&#45;7</title>
<path fill="none" stroke="black" d="M215.35,-72.76C221.17,-61.46 228.89,-46.44 234.7,-35.15"/>
</g>
<!-- 9 -->
<g id="node12" class="node">
<title>9</title>
<ellipse fill="none" stroke="black" cx="315" cy="-18" rx="27" ry="18"/>
<text text-anchor="middle" x="315" y="-12.57" font-family="Times New Roman,serif" font-size="14.00"> &#160;&#160;&#160;9</text>
</g>
<!-- 10&#45;&#45;9 -->
<g id="edge11" class="edge">
<title>10&#45;&#45;9</title>
<path fill="none" stroke="black" d="M342.47,-72.41C336.73,-61.25 329.2,-46.6 323.47,-35.47"/>
</g>
<!-- 11 -->
<g id="node13" class="node">
<title>11</title>
<ellipse fill="none" stroke="black" cx="387" cy="-18" rx="27.11" ry="18"/>
<text text-anchor="middle" x="387" y="-12.57" font-family="Times New Roman,serif" font-size="14.00"> &#160;&#160;11</text>
</g>
<!-- 10&#45;&#45;11 -->
<g id="edge12" class="edge">
<title>10&#45;&#45;11</title>
<path fill="none" stroke="black" d="M359.53,-72.41C365.27,-61.25 372.8,-46.6 378.53,-35.47"/>
</g>
<!-- 13 -->
<g id="node14" class="node">
<title>13</title>
<ellipse fill="none" stroke="black" cx="459" cy="-18" rx="27.11" ry="18"/>
<text text-anchor="middle" x="459" y="-12.57" font-family="Times New Roman,serif" font-size="14.00"> &#160;&#160;13</text>
</g>
<!-- 14&#45;&#45;13 -->
<g id="edge13" class="edge">
<title>14&#45;&#45;13</title>
<path fill="none" stroke="black" d="M459,-71.7C459,-60.85 459,-46.92 459,-36.1"/>
</g>
<!-- 15 -->
<g id="node15" class="node">
<title>15</title>
<ellipse fill="none" stroke="black" cx="531" cy="-18" rx="27.11" ry="18"/>
<text text-anchor="middle" x="531" y="-12.57" font-family="Times New Roman,serif" font-size="14.00"> &#160;&#160;15</text>
</g>
<!-- 14&#45;&#45;15 -->
<g id="edge14" class="edge">
<title>14&#45;&#45;15</title>
<path fill="none" stroke="black" d="M473.92,-74.5C486.28,-62.48 503.75,-45.49 516.1,-33.49"/>
</g>
</g>
</svg>
