<?xml version="1.0" encoding="UTF-8" standalone="no"?>
<!DOCTYPE svg PUBLIC "-//W3C//DTD SVG 1.1//EN"
 "http://www.w3.org/Graphics/SVG/1.1/DTD/svg11.dtd">
<!-- Generated by graphviz version 10.0.1 (20240210.2158)
 -->
<!-- Title: G Pages: 1 -->
<svg width="824pt" height="116pt"
 viewBox="0.00 0.00 824.03 116.00" xmlns="http://www.w3.org/2000/svg" xmlns:xlink="http://www.w3.org/1999/xlink">
<g id="graph0" class="graph" transform="scale(1 1) rotate(0) translate(4 112)">
<title>G</title>
<polygon fill="white" stroke="none" points="-4,4 -4,-112 820.03,-112 820.03,4 -4,4"/>
<!-- node8 -->
<g id="node1" class="node">
<title>node8</title>
<ellipse fill="none" stroke="black" cx="402.28" cy="-90" rx="79.01" ry="18"/>
<text text-anchor="middle" x="402.28" y="-84.58" font-family="Times New Roman,serif" font-size="14.00">1234567890,Maria</text>
</g>
<!-- node9 -->
<g id="node2" class="node">
<title>node9</title>
<ellipse fill="none" stroke="black" cx="194.28" cy="-18" rx="194.28" ry="18"/>
<text text-anchor="middle" x="194.28" y="-12.57" font-family="Times New Roman,serif" font-size="14.00">123456,cliente 3|456237,pepe|987654321,cliente 4</text>
</g>
<!-- node8&#45;&gt;node9 -->
<g id="edge1" class="edge">
<title>node8&#45;&gt;node9</title>
<path fill="none" stroke="black" d="M359.18,-74.5C329.01,-64.34 288.28,-50.63 254.84,-39.38"/>
<polygon fill="black" stroke="black" points="256.3,-36.18 245.7,-36.31 254.06,-42.81 256.3,-36.18"/>
</g>
<!-- node10 -->
<g id="node3" class="node">
<title>node10</title>
<ellipse fill="none" stroke="black" cx="611.28" cy="-18" rx="204.75" ry="18"/>
<text text-anchor="middle" x="611.28" y="-12.57" font-family="Times New Roman,serif" font-size="14.00">1234567890123,AUX EDD|6745567890123,cliente 2</text>
</g>
<!-- node8&#45;&gt;node10 -->
<g id="edge2" class="edge">
<title>node8&#45;&gt;node10</title>
<path fill="none" stroke="black" d="M445.58,-74.5C475.9,-64.34 516.82,-50.63 550.42,-39.38"/>
<polygon fill="black" stroke="black" points="551.24,-42.8 559.61,-36.31 549.01,-36.16 551.24,-42.8"/>
</g>
</g>
</svg>
